# xmcd
#
# Track frame offsets:
# 222
# 7587
# 21105
# 33222
# 48495
# 58237
# 70130
# 84342
# 97950
# 108525
# 124110
# 134235
#
# Disc length: 1954 seconds
#
#
# Revision: 3
# Processed by: cddbd v1.5.2PL0 Copyright (c) Steve Scherf et al.
# Submitted via: FreeRIP 2.96 
#
DISCID=9907a00c
DTITLE=Elvis Costello - Almost Blue
DYEAR=1981
DGENRE=country
TTITLE0=Why Don't You Love Me (Like You Used To Do)
TTITLE1=Sweet Dreams
TTITLE2=Success
TTITLE3=I'm Your Toy
TTITLE4=Tonight The Bottle Let Me Down
TTITLE5=Brown To Blue
TTITLE6=Good Year For The Roses
TTITLE7=Sittin' And Thinkin'
TTITLE8=Colour Of The Blues
TTITLE9=Too Far Gone
TTITLE10=Honey Hush
TTITLE11=How Much I've Lied
EXTD=
EXTT0=
EXTT1=
EXTT2=
EXTT3=
EXTT4=
EXTT5=
EXTT6=
EXTT7=
EXTT8=
EXTT9=
EXTT10=
EXTT11=
PLAYORDER=
